<svg width="160" height="100" xmlns="http://www.w3.org/2000/svg">
  <path d="
            M 0 10
            L 0 95
            A 5 5 0 0 0 10 95
            L 10 15
            A 5 5 0 0 1 15 10
            L 135 10
            A 5 5 0 0 1 140 15
            L 140 95
            A 5 5 0 0 0 150 95
            L 150 10
            A 10 10 0 0 0 140 0
            L 10 0
            A 10 10 0 0 0 0 10
        " stroke="black" fill="black"/>

    <!-- F letter: height 60px width 40px -->
    <path d="
            M 30 35
            L 30 85
            A 5 5 0 0 0 40 85
            L 40 65
            L 55 65
            A 5 5 0 0 0 55 55
            L 55 55
            L 40 55
            L 40 42.5
            A 2.5 2.5 0 0 1 42.5 40
            L 65 40
            A 5 5 0 0 0 65 30
            L 35 30
            A 5 5 0 0 0 30 35
        " stroke="black" fill="black"/>

    <!-- P letter: height 60px width 40px -->
    <path d="
            M 80 35
            L 80 85
            A 5 5 0 0 0 90 85
            L 90 42.5
            A 2.5 2.5 0 0 1 92.5 40
            L 105 40
            A 7.5 7.5 0 0 1 105 55
            A 2.5 2.5 0 0 0 97.5 57.5
            L 97.5 62.5
            A 2.5 2.5 0 0 0 100 65
            A 17.5 17.5 0 0 0 100 30
            L 85 30
            A 5 5 0 0 0 80 35
        " stroke="black" fill="black"/>
</svg>
